<?xml version="1.0" encoding="UTF-8" standalone="no"?>
<svg
   xmlns:dc="http://purl.org/dc/elements/1.1/"
   xmlns:cc="http://creativecommons.org/ns#"
   xmlns:rdf="http://www.w3.org/1999/02/22-rdf-syntax-ns#"
   xmlns:svg="http://www.w3.org/2000/svg"
   xmlns="http://www.w3.org/2000/svg"
   id="svg16"
   version="1.1"
   viewBox="0 0 12 12"
   height="12"
   width="12">
  <metadata
     id="metadata20">
    <rdf:RDF>
      <cc:Work
         rdf:about="">
        <dc:format>image/svg+xml</dc:format>
        <dc:type
           rdf:resource="http://purl.org/dc/dcmitype/StillImage" />
        <dc:title></dc:title>
      </cc:Work>
    </rdf:RDF>
  </metadata>
  <defs
     id="defs4">
    <style
       id="style2">.a{fill:none;}.b{fill:#fff;}</style>
  </defs>
  <g
     id="g14"
     transform="rotate(-25.186207,-5974.8454,1793.5129)">
    <rect
       style="fill:none"
       y="0"
       x="0"
       id="rect6"
       transform="translate(192,2715)"
       height="12"
       width="12"
       class="a" />
    <g
       id="g12"
       transform="translate(182.591,2707.715)">
      <g
         id="g10"
         transform="translate(10.409,7.285)">
        <path
           style="fill:#ffffff"
           id="path8"
           transform="translate(-10.409,-7.285)"
           d="m 19.279,12.018 c 0.185,-1.237 -0.757,-1.9 -2.045,-2.346 L 17.652,8 16.632,7.746 16.225,9.377 C 15.957,9.31 15.682,9.247 15.408,9.185 L 15.818,7.543 14.8,7.285 14.38,8.96 C 14.158,8.909 13.94,8.86 13.729,8.807 V 8.8 L 12.322,8.449 12.052,9.54 c 0,0 0.757,0.173 0.741,0.184 a 0.543,0.543 0 0 1 0.475,0.594 l -0.476,1.909 a 0.842,0.842 0 0 1 0.106,0.034 l -0.108,-0.027 -0.667,2.674 a 0.372,0.372 0 0 1 -0.468,0.242 c 0.01,0.015 -0.741,-0.185 -0.741,-0.185 l -0.506,1.168 1.327,0.331 c 0.247,0.062 0.489,0.127 0.727,0.188 l -0.422,1.695 1.019,0.254 0.418,-1.677 q 0.417,0.113 0.813,0.211 l -0.416,1.665 1.02,0.254 0.422,-1.691 c 1.739,0.329 3.047,0.2 3.6,-1.377 a 1.789,1.789 0 0 0 -0.937,-2.473 1.627,1.627 0 0 0 1.3,-1.5 z m -2.33,3.268 c -0.315,1.266 -2.448,0.582 -3.139,0.41 l 0.56,-2.245 c 0.691,0.172 2.908,0.513 2.578,1.834 z M 17.264,12 c -0.287,1.152 -2.062,0.567 -2.638,0.423 l 0.508,-2.036 c 0.575,0.143 2.429,0.413 2.13,1.613 z"
           class="b" />
      </g>
    </g>
  </g>
</svg>
