<svg xmlns="http://www.w3.org/2000/svg" width="12" height="12" viewBox="0 0 12 12"><defs><style>.a{fill:none;}.b{fill:#fff;}</style></defs><g transform="translate(-192 -2715)"><rect class="a" width="12" height="12" transform="translate(192 2715)"/><g transform="translate(182.591 2707.715)"><g transform="translate(10.409 7.285)"><path class="b" d="M19.279,12.018c.185-1.237-.757-1.9-2.045-2.346L17.652,8l-1.02-.254-.407,1.631c-.268-.067-.543-.13-.817-.192l.41-1.642L14.8,7.285,14.38,8.96c-.222-.051-.44-.1-.651-.153V8.8l-1.407-.351L12.052,9.54s.757.173.741.184a.543.543,0,0,1,.475.594l-.476,1.909a.842.842,0,0,1,.106.034l-.108-.027-.667,2.674a.372.372,0,0,1-.468.242c.01.015-.741-.185-.741-.185l-.506,1.168,1.327.331c.247.062.489.127.727.188l-.422,1.695,1.019.254.418-1.677q.417.113.813.211L13.874,18.8l1.02.254.422-1.691c1.739.329,3.047.2,3.6-1.377a1.789,1.789,0,0,0-.937-2.473,1.627,1.627,0,0,0,1.3-1.5Zm-2.33,3.268c-.315,1.266-2.448.582-3.139.41l.56-2.245C15.061,13.623,17.278,13.964,16.948,15.285ZM17.264,12c-.287,1.152-2.062.567-2.638.423l.508-2.036C15.709,10.53,17.563,10.8,17.264,12Z" transform="translate(-10.409 -7.285)"/></g></g></g></svg>