<svg height="100mm" viewBox="0 0 100 100" width="100mm" xmlns="http://www.w3.org/2000/svg"><path d="m16.637459 83.644346c1.877143-12.047076.063639-11.146637 22.519769-11.181411 16.730285-.025778 21.163792-.490374 26.108032-2.735059 7.946423-3.607711 12.03351-11.516553 12.889288-24.94181.595957-9.349245.405199-10.159783-3.176728-13.498801-3.673789-3.424638-4.604839-3.568775-25.903945-4.010182l-22.09319-.457883.889532-6.48986c.489246-3.569426.889536-7.359742.889536-8.422932 0-2.8615646 42.278635-2.727524 52.018547.164926 12.476388 3.705088 17.614522 11.469932 17.590001 26.582365-.03759 23.139353-9.188073 40.320654-25.376123 47.646943-3.988856 1.805249-11.064255 2.468299-31.237068 2.927272l-26.080129.593379zm-14.3987401-30.687947c.5102447-3.204477 2.315118-6.602881 4.5279346-8.525566 3.4409435-2.989783 4.9763065-3.197082 23.6791795-3.197082h19.999655l-.848404 5.328473c-.510245 3.204477-2.315117 6.602881-4.527934 8.525565-3.440943 2.989784-4.976312 3.197083-23.679187 3.197083h-19.9996542z" fill="#fff" stroke-width="1.42092"/></svg>