<svg xmlns="http://www.w3.org/2000/svg" width="12" height="12" viewBox="0 0 12 12"><defs><style>.a{fill:none;}.b{fill:#fff;}</style></defs><g transform="translate(-192 -2698)"><rect class="a" width="12" height="12" transform="translate(192 2698)"/><g transform="translate(-35 -65.564)"><g transform="translate(0 36.042)"><g transform="translate(228 2729.521)"><path class="b" d="M2.178,2.182,0,0H2.353L5.841,3.488H3.488a1.744,1.744,0,0,0,0,3.488H4.36L6.1,8.721H3.488A3.489,3.489,0,0,1,0,5.232,3.017,3.017,0,0,1,2.178,2.182Z"/><g transform="translate(4.36)"><path class="b" d="M121.422,6.539,123.6,8.721h-2.353l-3.488-3.488h2.353a1.742,1.742,0,0,0,1.232-2.976,1.72,1.72,0,0,0-1.232-.512h-.872L117.5,0h2.616A3.489,3.489,0,0,1,123.6,3.488,3.016,3.016,0,0,1,121.422,6.539Z" transform="translate(-117.5)"/></g></g></g></g></g></svg>