<svg xmlns="http://www.w3.org/2000/svg" width="47.32" height="40" viewBox="0 0 47.32 40"><defs><style>.a{fill:#fff;}</style></defs><g transform="translate(-411.316 -138)"><g transform="translate(427.316 138)"><g transform="translate(4.46 0)"><path class="a" d="M783.316,231" transform="translate(-771.776 -223)"/><path class="a" d="M666.323,168.3l9.7,9.7h-9.54l-16-16h9.9a8,8,0,0,0,0-16h-3.22l-8-8h10.86a16,16,0,0,1,16,16C676.023,160.489,673.163,165.58,666.323,168.3Z" transform="translate(-649.163 -138)"/></g><g transform="translate(0 32)"><path class="a" d="M597.316,510" transform="translate(-597.316 -510)"/></g></g><path class="a" d="M421.016,147.7l-9.7-9.7h9.54l16,16h-9.9a8,8,0,0,0,0,16h3.22l8,8h-10.86a16,16,0,0,1-16-16C411.316,155.511,414.176,150.42,421.016,147.7Z"/></g></svg>