<?xml version="1.0" encoding="UTF-8" standalone="no"?>
<svg
   xmlns:dc="http://purl.org/dc/elements/1.1/"
   xmlns:cc="http://creativecommons.org/ns#"
   xmlns:rdf="http://www.w3.org/1999/02/22-rdf-syntax-ns#"
   xmlns:svg="http://www.w3.org/2000/svg"
   xmlns="http://www.w3.org/2000/svg"
   xmlns:sodipodi="http://sodipodi.sourceforge.net/DTD/sodipodi-0.dtd"
   xmlns:inkscape="http://www.inkscape.org/namespaces/inkscape"
   viewBox="0 0 235 235.00006"
   version="1.1"
   id="svg18"
   sodipodi:docname="dex-logo.svg"
   width="235"
   height="235.00006"
   inkscape:version="0.92.5 (2060ec1f9f, 2020-04-08)">
  <metadata
     id="metadata22">
    <rdf:RDF>
      <cc:Work
         rdf:about="">
        <dc:format>image/svg+xml</dc:format>
        <dc:type
           rdf:resource="http://purl.org/dc/dcmitype/StillImage" />
        <dc:title>symbol - negative - bw</dc:title>
      </cc:Work>
    </rdf:RDF>
  </metadata>
  <sodipodi:namedview
     pagecolor="#ffffff"
     bordercolor="#666666"
     borderopacity="1"
     objecttolerance="10"
     gridtolerance="10"
     guidetolerance="10"
     inkscape:pageopacity="0"
     inkscape:pageshadow="2"
     inkscape:window-width="783"
     inkscape:window-height="480"
     id="namedview20"
     showgrid="false"
     fit-margin-top="0"
     fit-margin-left="0"
     fit-margin-right="0"
     fit-margin-bottom="0"
     inkscape:zoom="0.55791962"
     inkscape:cx="117.5"
     inkscape:cy="117.50003"
     inkscape:window-x="0"
     inkscape:window-y="27"
     inkscape:window-maximized="0"
     inkscape:current-layer="svg18" />
  <defs
     id="defs4">
    <style
       id="style2">.a{fill:#091440;}.b{fill:#fff;}</style>
  </defs>
  <title
     id="title6">symbol - negative - bw</title>
  <path
     class="b"
     d="M 235,3.080028e-5 V 47.000031 h -23.5 c -30.7,0 -56.12,19.62 -65.8,47 H 89.3 c -9.68,-27.38 -35.1,-47 -65.8,-47 H 0 V 3.080028e-5 H 23.5 A 117.33,117.33 0 0 1 117.5,47.000031 117.33,117.33 0 0 1 211.5,3.080028e-5 Z"
     id="path10"
     inkscape:connector-curvature="0"
     style="fill:#ffffff" />
  <path
     class="b"
     d="M 211.5,188.00003 H 235 v 47 h -23.5 a 117.33,117.33 0 0 1 -94,-47 117.33,117.33 0 0 1 -94,47 H 0 v -47 h 23.5 c 30.7,0 56.12,-19.62 65.8,-47 h 56.4 c 9.68,27.38 35.1,47 65.8,47 z"
     id="path12"
     inkscape:connector-curvature="0"
     style="fill:#ffffff" />
  <rect
     class="b"
     x="145.7"
     y="94.000031"
     width="89.300003"
     height="47"
     id="rect14"
     style="fill:#ffffff" />
  <rect
     class="b"
     x="0"
     y="94.000031"
     width="89.300003"
     height="47"
     id="rect16"
     style="fill:#ffffff" />
</svg>
