<?xml version="1.0" encoding="UTF-8" standalone="no"?>
<svg
   viewBox="0 0 479.8 479.8"
   version="1.1"
   id="svg870"
   xmlns="http://www.w3.org/2000/svg"
   xmlns:svg="http://www.w3.org/2000/svg">
  <defs
     id="defs874" />
  <path
     fill="#ffffff"
     d="M 16.551849,135.59988 H 296.87682 c 0,0 96.75733,-0.90427 29.84104,123.88555 0,0 -48.8308,97.6616 -170.00353,95.85306 L 222.00292,188.59034 A 13.202402,13.202402 0 0 0 210.06651,170.50486 L 124.16047,169.05802 15.647575,433.10606 c 0,0 36.170964,3.6171 56.064994,1.80855 L 60.86128,462.04283 h 51.18191 a 6.8724831,6.8724831 0 0 0 6.51078,-4.52137 l 9.22359,-24.4154 21.70258,-1.80855 -12.65984,30.74532 h 49.91593 a 9.042741,9.042741 0 0 0 8.50018,-5.78735 l 13.92582,-35.80926 c 0,0 151.91805,-25.31967 220.64288,-148.30095 0,0 92.23596,-142.87531 -16.27693,-193.514658 A 209.79159,209.79159 0 0 0 346.61189,60.54513 l 12.65984,-31.287883 a 6.1490639,6.1490639 0 0 0 -5.6065,-8.500177 h -46.8414 l -14.46838,37.979512 h -19.89403 l 11.213,-29.479335 A 6.3299187,6.3299187 0 0 0 277.88706,20.75707 H 230.86481 L 216.39642,58.736582 H 70.26573 A 21.702578,21.702578 0 0 0 51.095119,70.130436 Z"
     id="path868"
     style="stroke-width:1.80855" />
</svg>
