<?xml version="1.0" encoding="UTF-8" standalone="no"?>
<!-- Uploaded to: SVG Repo, www.svgrepo.com, Generator: SVG Repo Mixer Tools -->

<svg
   width="800px"
   height="800px"
   viewBox="-80.5 0 417 417"
   version="1.1"
   preserveAspectRatio="xMidYMid"
   id="svg75"
   xmlns="http://www.w3.org/2000/svg"
   xmlns:svg="http://www.w3.org/2000/svg">
  <defs
     id="defs79" />
  <polygon
     fill="#343434"
     points="127.9611,287.958 255.9231,212.32 127.9611,0 125.1661,9.5 125.1661,285.168 "
     id="polygon61"
     style="fill:#ffffff;fill-opacity:1"
     transform="matrix(0.96223235,0,0,0.96223235,4.8342418,7.8727906)" />
  <polygon
     fill="#8c8c8c"
     points="127.962,154.158 127.962,0 0,212.32 127.962,287.959 "
     id="polygon63"
     style="fill:#ffffff;fill-opacity:1"
     transform="matrix(0.96223235,0,0,0.96223235,4.8342418,7.8727906)" />
  <polygon
     fill="#3c3c3b"
     points="127.9611,416.9066 255.9991,236.5866 127.9611,312.1866 126.3861,314.1066 126.3861,412.3056 "
     id="polygon65"
     style="fill:#ffffff;fill-opacity:1"
     transform="matrix(0.96223235,0,0,0.96223235,4.8342418,7.8727906)" />
  <polygon
     fill="#8c8c8c"
     points="127.962,416.9052 127.962,312.1852 0,236.5852 "
     id="polygon67"
     style="fill:#ffffff;fill-opacity:1"
     transform="matrix(0.96223235,0,0,0.96223235,4.8342418,7.8727906)" />
  <polygon
     fill="#141414"
     points="127.9611,287.9577 255.9211,212.3207 127.9611,154.1587 "
     id="polygon69"
     style="fill:#ffffff;fill-opacity:1"
     transform="matrix(0.96223235,0,0,0.96223235,4.8342418,7.8727906)" />
  <polygon
     fill="#393939"
     points="0.0009,212.3208 127.9609,287.9578 127.9609,154.1588 "
     id="polygon71"
     style="fill:#ffffff;fill-opacity:1"
     transform="matrix(0.96223235,0,0,0.96223235,4.8342418,7.8727906)" />
</svg>
