<svg height="100mm" viewBox="0 0 100 100" width="100mm" xmlns="http://www.w3.org/2000/svg"><path d="m5.5625604 80.449583c-2.2359272-3.24647-4.0653229-6.262037-4.0653229-6.701261 0-.439227 6.4401503-.939965 14.3114455-1.11275l14.311446-.314149 4.264054-8.137879 4.264053-8.137879h-7.230745c-7.9184 0-8.593393-.562664-8.593393-7.163338 0-5.548412 1.546907-6.306256 12.872282-6.306256h10.178363l7.896695-14.872676 7.8967-14.872682 14.092996-.312961 14.092993-.31296 4.087604 5.935016c2.248179 3.264262 4.087604 6.309477 4.087604 6.767146 0 .457673-6.2753.832133-13.945108.832133h-13.945102l-4.520829 8.137878-4.520828 8.13788 5.276955.293318c10.270359.57087 10.48533.726582 10.104855 7.319132l-.338034 5.857148-11.224661.324288-11.224659.324289-5.948652 11.536854c-3.271755 6.34527-6.926376 13.144602-8.121381 15.109622l-2.172733 3.572773h-13.910633-13.9106372z" fill="#fff" stroke-width="1.12247"/></svg>