<svg height="100mm" viewBox="0 0 100 100" width="100mm" xmlns="http://www.w3.org/2000/svg"><path d="m45.402492 94.880272c-.899042-1.14602-4.359396-7.015232-7.689676-13.042692l-6.055046-10.959027 2.9834-5.108288c1.640872-2.80956 3.530928-4.995843 4.200124-4.858411.669201.137408 3.372881.24986 6.008176.24986h4.791448l-2.763573 4.857571c-2.688008 4.724743-2.644535 5.068525 1.589747 12.572833l4.35332 7.715262h9.138674 9.138673l4.353319-7.70593 4.35332-7.705931-4.349531-7.705924-4.34953-7.705931-24.819414-.811153-24.819408-.811152-7.081703-12.557492-7.0817098-12.557498 7.2716028-12.588168 7.271603-12.5881685h15.805524 15.805529l7.27502 12.5115425 7.275019 12.511542-3.106308 5.33377c-3.028504 5.200182-7.997608 7.353447-12.755909 5.527514-1.897059-.727972-1.809587-1.696491.523571-5.797013 2.736073-4.808666 2.70002-5.102231-1.552178-12.638287l-4.353332-7.715244h-9.138673-9.138673l-4.353319 7.70593-4.35332 7.70593 4.34953 7.705924 4.34953 7.705931 24.660595.811152 24.660602.811153 7.269126 12.507975 7.26912 12.507973-7.295762 12.637693-7.295767 12.637686-15.354556.461398c-11.034874.331593-15.814427-.124838-16.989185-1.622299z" fill="#fff" stroke-width="1.6223"/></svg>