<svg width="73" height="36" viewBox="0 0 73 36" fill="none" xmlns="http://www.w3.org/2000/svg">
<path fill-rule="evenodd" clip-rule="evenodd" d="M5.63479 35.0946C5.74248 34.9938 5.84381 34.8857 5.93792 34.7707C7.39893 33.0687 9.68683 31.9883 13.4021 31.9883C16.9038 31.9883 19.9076 32.964 22.5343 34.8922L22.638 34.9695C24.0653 36.0349 26.0083 36.0789 27.4821 35.0791C30.6209 32.9496 33.6622 31.9883 36.6574 31.9883C39.5996 31.9883 42.4545 32.9148 45.2845 34.9294L45.3435 34.9717C46.9144 36.0986 49.0503 36.0009 50.5124 34.7354C52.3816 33.1175 54.9397 32.1734 58.4987 32.1734C62.2408 32.1734 65.1427 33.2196 67.4347 35.158C67.8025 35.4833 68.2384 35.7251 68.7101 35.8642C69.2398 36.0204 69.8146 36.0471 70.3885 35.9169C70.7191 35.8424 71.0399 35.7174 71.3383 35.543C71.7147 35.3232 72.0388 35.0345 72.2983 34.6981C72.6374 34.2599 72.8519 33.7612 72.9453 33.247C73.0065 32.9129 73.0176 32.5657 72.9724 32.2157C72.9519 32.0548 72.9198 31.8954 72.8762 31.7387C70.2202 21.4261 65.8791 13.3517 59.6082 7.8979C53.2685 2.38437 45.277 -0.171328 35.9226 0.00889603C26.6057 0.188399 18.7292 2.92059 12.5836 8.43334C6.49 13.8995 2.4099 21.8193 0.0998202 31.8299C0.0725006 31.94 0.050873 32.0512 0.0349014 32.163C-0.0519951 32.7619 0.0262052 33.3526 0.237907 33.8843C0.36561 34.2067 0.544493 34.5123 0.773486 34.7879C1.10799 35.1922 1.53873 35.5204 2.04121 35.7334C2.30563 35.8459 2.58072 35.9224 2.85937 35.9634C3.89644 36.118 4.90971 35.7732 5.63479 35.0946ZM36.0512 6.72086C44.0458 6.56683 50.3396 8.72363 55.2215 12.9693C58.7681 16.0537 61.7339 20.3842 64.0276 26.1036C62.2799 25.6718 60.4328 25.4602 58.4987 25.4602C54.4074 25.4602 50.7358 26.4092 47.6767 28.4743C44.2495 26.3773 40.5626 25.2751 36.6574 25.2751C32.6633 25.2751 28.8292 26.4273 25.1902 28.5902C21.6779 26.3746 17.7202 25.2751 13.4021 25.2751C11.8428 25.2751 10.3508 25.4202 8.9433 25.7235C11.0058 20.4634 13.7345 16.4084 17.0474 13.4366C21.7814 9.19016 28.0192 6.8756 36.0512 6.72086Z" fill="white"/>
</svg>
