<?xml version="1.0" encoding="UTF-8" standalone="no"?>
<svg
   data-name="86977684-12db-4850-8f30-233a7c267d11"
   viewBox="0 0 2000 2000"
   version="1.1"
   id="svg1786"
   xmlns="http://www.w3.org/2000/svg"
   xmlns:svg="http://www.w3.org/2000/svg">
  <defs
     id="defs1790" />
  <path
     d="m 1361.2019,1204.042 c 0,-191.542 -114.928,-257.21506 -344.7837,-284.57446 C 852.23563,897.57216 819.3991,853.7945 819.3991,777.16718 c 0,-76.62733 54.73193,-125.86899 164.18263,-125.86899 98.50957,0 153.24157,32.83653 180.60097,114.92786 5.477,16.41825 21.8953,27.3594 38.3136,27.3594 h 87.5553 c 21.8954,0 38.3137,-16.41827 38.3137,-38.30055 v -5.47711 c -21.8954,-120.40498 -120.405,-213.43744 -246.274,-224.37857 v -131.3461 c 0,-21.89541 -16.4182,-38.31367 -43.7776,-43.7908 h -82.09136 c -21.8954,0 -38.31365,16.41825 -43.79079,43.7908 v 125.86896 c -164.18263,21.89541 -268.15622,131.34611 -268.15622,268.16936 0,180.6009 109.45072,251.73796 339.3064,279.11046 153.24157,27.3594 202.49627,60.196 202.49627,147.7644 0,87.5684 -76.6272,147.7643 -180.6008,147.7643 -142.30044,0 -191.55524,-60.209 -207.97349,-142.3003 -5.46401,-21.8823 -21.88227,-32.8366 -38.30054,-32.8366 h -93.04558 c -21.88226,0 -38.30053,16.4183 -38.30053,38.3138 v 5.4771 c 21.88226,136.8101 109.45073,235.3196 290.05163,262.6921 v 131.3461 c 0,21.8823 16.41825,38.3006 43.77764,43.7778 h 82.09127 c 21.8955,0 38.3137,-16.4183 43.7909,-43.7778 v -131.3461 c 164.1826,-27.3725 273.6334,-142.3003 273.6334,-290.0647 z"
     fill="#ffffff"
     id="path1782"
     style="stroke-width:1.31345" />
  <path
     d="M 720.88952,1778.6812 C 294.01466,1625.4528 75.100094,1149.3233 233.81874,727.91238 315.91005,498.05669 496.51096,322.93291 720.88952,240.84161 c 21.89538,-10.94113 32.83653,-27.3594 32.83653,-54.73193 V 109.4955 c 0,-21.895407 -10.94115,-38.313672 -32.83653,-43.777666 -5.47714,0 -16.41827,0 -21.8954,5.463994 C 179.08681,235.36447 -105.50081,788.12144 58.681829,1308.0287 c 98.509581,306.4699 333.842411,541.8027 640.312291,640.3123 21.8954,10.9412 43.79078,0 49.2548,-21.8954 5.47713,-5.464 5.47713,-10.9411 5.47713,-21.8822 v -76.6273 c 0,-16.4183 -16.41826,-38.3006 -32.83653,-49.2549 z M 1301.0059,71.181828 c -21.8954,-10.941129 -43.7908,0 -49.2548,21.895404 -5.4772,5.477128 -5.4772,10.941128 -5.4772,21.895398 v 76.61418 c 0,21.8954 16.4183,43.77766 32.8366,54.73193 426.8748,153.22837 645.7894,629.35802 487.0707,1050.76896 -82.0912,229.8556 -262.6922,404.9793 -487.0707,487.0707 -21.8954,10.9411 -32.8366,27.3594 -32.8366,54.7319 v 76.6142 c 0,21.8954 10.9412,38.3136 32.8366,43.7777 5.4772,0 16.4182,0 21.8954,-5.4641 519.9072,-164.1826 804.4949,-716.9395 640.3122,-1236.84685 C 1842.8086,405.02424 1601.9986,169.69141 1301.0059,71.181828 Z"
     fill="#ffffff"
     id="path1784"
     style="stroke-width:1.31345" />
</svg>
