<svg height="100mm" viewBox="0 0 100 100" width="100mm" xmlns="http://www.w3.org/2000/svg"><path d="m38.651606 76.840692v-18.421965l-13.248867-1.930986c-31.6491555-4.612954-31.2246379-16.854074.760954-21.943156 12.085371-1.922852 12.487913-2.132785 12.487913-6.511638v-4.524687h-13.127625-13.127693l.489388-9.376966.488772-9.3770285h37.507987 37.507987l.489387 9.3770285.489387 9.376966h-13.943069-13.943009v4.599941c0 4.47957.329133 4.651163 12.580361 6.555835 32.262411 5.015674 31.967671 17.322316-.526983 22.003677l-12.053507 1.736469v18.429235 18.429233h-11.415445-11.415447zm39.918687-27.318292c6.258992-.904507 12.030631-2.295257 12.825921-3.090486 1.964886-1.964886-5.915804-5.799619-16.540037-8.048282-13.112218-2.775273-13.373677-2.6835-13.373677 4.694v6.523106h-10.580776-10.580837l-1.043059-6.523106c-.843919-5.277317-1.716499-6.523106-4.569006-6.523106-4.580095 0-21.447044 4.401477-25.8054981 6.734086-2.9252605 1.565549-3.0408153 2.008465-.8445957 3.237544 7.6456158 4.278697 49.3686238 6.051653 70.5115648 2.996244z" fill="#fff" stroke-width="1.63078"/></svg>