<svg height="100mm" viewBox="0 0 100 100" width="100mm" xmlns="http://www.w3.org/2000/svg"><path d="m39.173018 92.669161c-7.381409-1.984966-13.805936-5.776646-19.592601-11.563315-15.2096813-15.209681-16.8847208-39.553845-3.896307-56.62691 20.049993-26.3553976 60.071266-22.155642 74.377508 7.805036 3.432136 7.187705 3.521911 7.653603 3.521911 18.277652 0 10.624051-.08979 11.089944-3.521911 18.277652-9.227844 19.325301-30.535479 29.303162-50.8886 23.829885zm25.184604-12.181958c3.170831-1.422985 7.397666-4.259093 9.392966-6.302466l3.627817-3.715223h-21.996271c-12.097952 0-21.996271-.261235-21.996271-.580489 0-.319278 4.958955-9.277819 11.019904-19.907888l11.019907-19.3274h6.044001c3.324199 0 6.043998.291009 6.043998.64668 0 .355682-3.412781 6.676933-7.583959 14.047234-4.171178 7.370307-7.58396 13.691562-7.58396 14.04724 0 .355681 6.806232.64668 15.124963.64668h15.124958l.639467-3.40865c1.964672-10.472605-2.002333-22.703996-9.649868-29.753247-6.808336-6.275705-13.55149-8.917526-22.777725-8.923819-6.723784-.0047-8.466782.372372-13.745925 2.9728-3.325164 1.637923-7.515876 4.496128-9.312697 6.351563l-3.26695 3.373519h14.425063 14.425064l-2.841075 4.97697-2.841071 4.976973-13.965425.263456c-9.718164.183341-14.18928.615809-14.701487 1.421992-1.55339 2.444934-.799071 14.740674 1.246584 20.319852 2.951928 8.050881 11.724879 16.496388 19.908132 19.165075 8.126489 2.650174 16.423424 2.207967 24.21986-1.290866zm22.17083-6.936706c8.653247-13.638011 8.620305-32.39153-.08097-46.105451l-2.938103-4.63068-3.246488 3.146623c-2.813958 2.727395-3.073269 3.344343-1.946334 4.63068.715086.816234 2.309705 3.403748 3.543598 5.750036 1.945963 3.700306 2.243439 5.585863 2.243439 14.219919 0 9.526321-.138733 10.209784-3.229247 15.909282l-3.22925 5.955333 2.695613 2.813615c1.482587 1.547489 2.838498 2.813619 3.013129 2.813619.174634 0 1.603219-2.026339 3.174628-4.502976z" fill="#fff" stroke-width=".94799"/></svg>