<?xml version="1.0" encoding="UTF-8" standalone="no"?>
<svg
   xmlns:dc="http://purl.org/dc/elements/1.1/"
   xmlns:cc="http://creativecommons.org/ns#"
   xmlns:rdf="http://www.w3.org/1999/02/22-rdf-syntax-ns#"
   xmlns:svg="http://www.w3.org/2000/svg"
   xmlns="http://www.w3.org/2000/svg"
   id="svg16"
   version="1.1"
   viewBox="0 0 12 12"
   height="12"
   width="12">
  <metadata
     id="metadata20">
    <rdf:RDF>
      <cc:Work
         rdf:about="">
        <dc:format>image/svg+xml</dc:format>
        <dc:type
           rdf:resource="http://purl.org/dc/dcmitype/StillImage" />
        <dc:title></dc:title>
      </cc:Work>
    </rdf:RDF>
  </metadata>
  <defs
     id="defs4">
    <style
       id="style2">.a{fill:none;}.b{fill:#fff;}</style>
  </defs>
  <g
     style="fill:#fffffb;fill-opacity:1"
     transform="matrix(0.00450848,0,0,0.00450848,5.9703734,5.9702242)"
     id="g2087">
    <g
       style="fill:#fffffb;fill-opacity:1"
       transform="rotate(-25.186207,-5974.8454,1793.5129)"
       id="g14">
      <rect
         class="a"
         width="12"
         height="12"
         transform="translate(192,2715)"
         id="rect6"
         x="0"
         y="0"
         style="fill:#fffffb;fill-opacity:1" />
      <g
         style="fill:#fffffb;fill-opacity:1"
         transform="translate(182.591,2707.715)"
         id="g12">
        <g
           style="fill:#fffffb;fill-opacity:1"
           transform="translate(10.409,7.285)"
           id="g10">
          <path
             class="b"
             d="m 19.279,12.018 c 0.185,-1.237 -0.757,-1.9 -2.045,-2.346 L 17.652,8 16.632,7.746 16.225,9.377 C 15.957,9.31 15.682,9.247 15.408,9.185 L 15.818,7.543 14.8,7.285 14.38,8.96 C 14.158,8.909 13.94,8.86 13.729,8.807 V 8.8 L 12.322,8.449 12.052,9.54 c 0,0 0.757,0.173 0.741,0.184 a 0.543,0.543 0 0 1 0.475,0.594 l -0.476,1.909 a 0.842,0.842 0 0 1 0.106,0.034 l -0.108,-0.027 -0.667,2.674 a 0.372,0.372 0 0 1 -0.468,0.242 c 0.01,0.015 -0.741,-0.185 -0.741,-0.185 l -0.506,1.168 1.327,0.331 c 0.247,0.062 0.489,0.127 0.727,0.188 l -0.422,1.695 1.019,0.254 0.418,-1.677 q 0.417,0.113 0.813,0.211 l -0.416,1.665 1.02,0.254 0.422,-1.691 c 1.739,0.329 3.047,0.2 3.6,-1.377 a 1.789,1.789 0 0 0 -0.937,-2.473 1.627,1.627 0 0 0 1.3,-1.5 z m -2.33,3.268 c -0.315,1.266 -2.448,0.582 -3.139,0.41 l 0.56,-2.245 c 0.691,0.172 2.908,0.513 2.578,1.834 z M 17.264,12 c -0.287,1.152 -2.062,0.567 -2.638,0.423 l 0.508,-2.036 c 0.575,0.143 2.429,0.413 2.13,1.613 z"
             transform="translate(-10.409,-7.285)"
             id="path8"
             style="fill:#fffffb;fill-opacity:1" />
        </g>
      </g>
    </g>
    <path
       style="stroke-width:2.7113862;fill:#fffffb;fill-opacity:1"
       d="m 6.7069066,1255.6044 c -168.6481966,0 -332.1448166,-33.0789 -486.1515466,-98.1522 -148.8551,-62.9041 -282.25529,-152.9221 -396.94693,-267.61385 -114.69163,-114.6916 -204.70963,-248.3629 -267.61383,-396.9469 -65.3444,-154.2779 -98.4233,-317.7744 -98.4233,-486.4226991 0,-168.6482009 33.0789,-332.1447609 98.1522,-486.1514909 62.9041,-148.8551 152.92216,-282.25529 267.61379,-396.94693 114.69164,-114.69163 248.36297,-204.70963 396.94693,-267.61383 154.00673,-65.0732 317.77449,-98.1521 486.1514866,-98.1521 168.3771034,0 332.4160034,32.8077 486.4227034,97.881 148.8551,62.9042 282.2553,152.92216 396.9469,267.6138 114.69169,114.69163 204.70969,248.36296 267.61379,396.94692 65.0733,154.00673 98.1522,317.77443 98.1522,486.1515309 0,168.6481991 -33.0789,332.1447991 -98.1522,486.1514991 -62.9041,148.8551 -152.9221,282.2553 -267.61379,396.947 -114.6916,114.69165 -248.3629,204.70965 -396.9469,267.61385 -154.0067,65.6155 -317.5033,98.6944 -486.1515034,98.6944 z m 0,-2220.62525 c -259.4796666,0 -503.5044166,101.1347 -687.0652566,284.4244 -183.56084,183.56084 -284.4244,427.58559 -284.4244,687.0652009 0,259.4796991 101.1347,503.5043991 284.4244,687.0652991 183.56084,183.2897 427.58559,284.4244 687.0652566,284.4244 259.4796034,0 503.5044034,-101.1347 687.0652034,-284.4244 183.2897,-183.5609 284.4244,-427.5856 284.4244,-687.0652991 0,-259.4796109 -101.1347,-503.5043609 -284.4244,-687.0652009 -183.5608,-183.2897 -427.5856,-284.4244 -687.0652034,-284.4244 z"
       id="path1507" />
    <path
       style="stroke-width:2.7113862;fill:#fffffb;fill-opacity:1"
       d="M -68.398493,317.46475 H 472.79411 v 271.952 h -333.2293 c 5.4228,77.8168 8.4053,149.9397 13.8281,227.4853 h -280.3574 V 592.12815 H -460.1938 c 0,-88.9334 -11.11668,-177.5958 5.42277,-260.8353 8.4053,-44.4667 58.2948,-83.2396 88.93347,-122.0124 105.47292,-124.994899 210.94587,-247.007299 319.130167,-372.0022 41.7552996,-47.1781 83.2395,-91.64481 130.4176,-144.2457 H -435.24905 v -271.95202 h 308.01346 v -227.4853 h 269.2406 v 222.06253 h 335.9408 c 0,91.64485 11.1167,180.30717 -5.4228,263.81786 -8.4053,44.46674 -58.2948,83.23953 -91.6448,122.01233 -105.473,124.994901 -210.9459,247.007301 -319.130203,372.0022 -41.2131,49.6184 -82.6973,93.814 -130.1465,143.9746 z"
       id="path1509" />
  </g>
</svg>
