<?xml version="1.0" encoding="UTF-8" standalone="no"?>
<svg
   xmlns:dc="http://purl.org/dc/elements/1.1/"
   xmlns:cc="http://creativecommons.org/ns#"
   xmlns:rdf="http://www.w3.org/1999/02/22-rdf-syntax-ns#"
   xmlns:svg="http://www.w3.org/2000/svg"
   xmlns="http://www.w3.org/2000/svg"
   xmlns:sodipodi="http://sodipodi.sourceforge.net/DTD/sodipodi-0.dtd"
   xmlns:inkscape="http://www.inkscape.org/namespaces/inkscape"
   viewBox="0 0 1174 235.00006"
   version="1.1"
   id="svg50"
   sodipodi:docname="landing-logo.svg"
   inkscape:version="0.92.5 (2060ec1f9f, 2020-04-08)"
   width="1174"
   height="235.00006">
  <metadata
     id="metadata54">
    <rdf:RDF>
      <cc:Work
         rdf:about="">
        <dc:format>image/svg+xml</dc:format>
        <dc:type
           rdf:resource="http://purl.org/dc/dcmitype/StillImage" />
        <dc:title>logo - negative - gradient</dc:title>
      </cc:Work>
    </rdf:RDF>
  </metadata>
  <sodipodi:namedview
     pagecolor="#ffffff"
     bordercolor="#666666"
     borderopacity="1"
     objecttolerance="10"
     gridtolerance="10"
     guidetolerance="10"
     inkscape:pageopacity="0"
     inkscape:pageshadow="2"
     inkscape:window-width="1554"
     inkscape:window-height="800"
     id="namedview52"
     showgrid="false"
     inkscape:zoom="0.25477239"
     inkscape:cx="587"
     inkscape:cy="117.50003"
     inkscape:window-x="0"
     inkscape:window-y="27"
     inkscape:window-maximized="0"
     inkscape:current-layer="svg50"
     fit-margin-top="0"
     fit-margin-left="0"
     fit-margin-right="0"
     fit-margin-bottom="0" />
  <defs
     id="defs24">
    <style
       id="style2">.a{fill:#091440;}.b{fill:url(#a);}.c{fill:url(#b);}.d{fill:url(#c);}.e{fill:url(#d);}.f{fill:#fff;}</style>
    <linearGradient
       id="a"
       x1="141"
       y1="188"
       x2="282"
       y2="47"
       gradientUnits="userSpaceOnUse"
       gradientTransform="translate(-94,-93.999969)">
      <stop
         offset="0"
         stop-color="#2c2fa9"
         id="stop4" />
      <stop
         offset="1"
         stop-color="#504cff"
         id="stop6" />
    </linearGradient>
    <linearGradient
       id="b"
       x1="141"
       y1="376"
       x2="282"
       y2="235"
       gradientUnits="userSpaceOnUse"
       gradientTransform="translate(-94,-93.999969)">
      <stop
         offset="0"
         stop-color="#101866"
         id="stop9" />
      <stop
         offset="1"
         stop-color="#3133b4"
         id="stop11" />
    </linearGradient>
    <linearGradient
       id="c"
       x1="250.28"
       y1="245.57001"
       x2="318.42999"
       y2="177.42"
       gradientUnits="userSpaceOnUse"
       gradientTransform="translate(-94,-93.999969)">
      <stop
         offset="0"
         stop-color="#3133b4"
         id="stop14" />
      <stop
         offset="1"
         stop-color="#4342e0"
         id="stop16" />
    </linearGradient>
    <linearGradient
       id="d"
       x1="104.57"
       y1="245.57001"
       x2="172.72"
       y2="177.42999"
       gradientUnits="userSpaceOnUse"
       gradientTransform="translate(-94,-93.999969)">
      <stop
         offset="0"
         stop-color="#1d2285"
         id="stop19" />
      <stop
         offset="1"
         stop-color="#2f31b0"
         id="stop21" />
    </linearGradient>
  </defs>
  <title
     id="title26">logo - negative - gradient</title>
  <path
     class="b"
     d="M 235,3.0800389e-5 V 47.000031 h -23.5 c -30.7,0 -56.12,19.62 -65.8,47 H 89.3 c -9.68,-27.38 -35.1,-47 -65.8,-47 H 0 V 3.0800389e-5 H 23.5 A 117.33,117.33 0 0 1 117.5,47.000031 117.33,117.33 0 0 1 211.5,3.0800389e-5 Z"
     id="path30"
     inkscape:connector-curvature="0"
     style="fill:url(#a)" />
  <path
     class="c"
     d="M 211.5,188.00003 H 235 v 47 h -23.5 a 117.33,117.33 0 0 1 -94,-47 117.33,117.33 0 0 1 -94,47 H 0 v -47 h 23.5 c 30.7,0 56.12,-19.62 65.8,-47 h 56.4 c 9.68,27.38 35.1,47 65.8,47 z"
     id="path32"
     inkscape:connector-curvature="0"
     style="fill:url(#b)" />
  <rect
     class="d"
     x="145.7"
     y="94.000031"
     width="89.300003"
     height="47"
     id="rect34"
     style="fill:url(#c)" />
  <rect
     class="e"
     x="0"
     y="94.000031"
     width="89.300003"
     height="47"
     id="rect36"
     style="fill:url(#d)" />
  <path
     class="f"
     d="M 329,188.00003 V 47.000031 h 55 q 32.83,0 53.88,20 21.05,20 21,50.059999 v 0.4 q 0,30.21 -21,50.36 -21,20.15 -53.88,20.18 z m 31,-28 h 24 q 18.93,0 30.72,-11.68 11.79,-11.68 11.78,-30.42 v -0.4 q 0,-18.739999 -11.78,-30.619999 -11.78,-11.88 -30.72,-11.88 h -24 z"
     id="path38"
     inkscape:connector-curvature="0"
     style="fill:#ffffff" />
  <path
     class="f"
     d="m 546.05,190.36003 q -31,0 -51.62,-20.93 -20.62,-20.93 -20.63,-51.53 v -0.4 q 0,-30.579999 20.73,-51.729999 20.73,-21.15 52.73,-21.13 18.72,0 31.8,5.54 a 74.49,74.49 0 0 1 23.75,16.2 l -19.72,22.74 q -17.52,-15.9 -36,-15.9 a 37.88,37.88 0 0 0 -29.21,12.78 q -11.68,12.78 -11.68,31.099999 v 0.4 q 0,18.52 11.58,31.4 11.58,12.88 29.28,12.88 11.27,0 19.52,-4 a 76.38,76.38 0 0 0 17.51,-12.47 l 19.73,19.92 a 83.41,83.41 0 0 1 -25.06,18.77 q -13.38,6.37 -32.71,6.36 z"
     id="path40"
     inkscape:connector-curvature="0"
     style="fill:#ffffff" />
  <path
     class="f"
     d="M 625.06,187.94003 V 47.060031 h 64.4 q 26.77,0 41.06,14.29 12.08,12.08 12.08,32.2 v 0.4 q 0,32.419999 -30.19,43.679999 l 34.41,50.31 H 710.6 l -30.19,-45.08 h -24.36 v 45.08 z m 31,-72.45 h 31.4 q 11.07,0 17.41,-5.44 6.34,-5.44 6.34,-14.489999 v -0.4 q 0,-9.85 -6.44,-15 -6.44,-5.15 -17.92,-5.16 h -30.8 z"
     id="path42"
     inkscape:connector-curvature="0"
     style="fill:#ffffff" />
  <path
     class="f"
     d="M 767,187.94003 V 47.060031 h 54.94 q 32.8,0 53.84,20 21.04,20 21,49.999999 v 0.4 q 0,30.19 -21,50.32 -21,20.13 -53.84,20.12 z m 31,-28 h 23.95 q 18.92,0 30.7,-11.68 11.78,-11.68 11.77,-30.39 v -0.4 q 0,-18.719999 -11.77,-30.589999 -11.77,-11.87 -30.74,-11.88 H 798 Z"
     id="path44"
     inkscape:connector-curvature="0"
     style="fill:#ffffff" />
  <path
     class="f"
     d="M 914.77,187.94003 V 47.060031 H 1021 v 27.57 H 945.53 V 103.21003 H 1012 v 27.57 h -66.42 v 29.59 h 76.48 v 27.57 z"
     id="path46"
     inkscape:connector-curvature="0"
     style="fill:#ffffff" />
  <path
     class="f"
     d="m 1039.15,187.94003 49.11,-71.65 -47.1,-69.229999 h 36.23 l 29.61,45.68 29.79,-45.68 H 1172 l -47.1,68.829999 49.1,72.05 h -36.23 l -31.6,-48.3 -31.8,48.3 z"
     id="path48"
     inkscape:connector-curvature="0"
     style="fill:#ffffff" />
</svg>
