<?xml version="1.0" standalone="no"?>
<!DOCTYPE svg PUBLIC "-//W3C//DTD SVG 20010904//EN"
 "http://www.w3.org/TR/2001/REC-SVG-20010904/DTD/svg10.dtd">
<svg version="1.0" xmlns="http://www.w3.org/2000/svg"
 width="700.000000pt" height="700.000000pt" viewBox="0 0 700.000000 700.000000"
 preserveAspectRatio="xMidYMid meet">
<metadata>
Created by potrace 1.11, written by Peter Selinger 2001-2013
</metadata>
<g transform="translate(0.000000,700.000000) scale(0.100000,-0.100000)"
fill="#000000" stroke="none">
<path d="M0 6301 l0 -701 403 -1 c221 0 418 -2 437 -4 153 -14 205 -21 270
-36 25 -5 54 -11 66 -13 108 -20 301 -92 448 -166 350 -175 630 -433 843 -775
60 -96 147 -274 176 -360 l14 -40 843 0 842 0 17 45 c10 25 24 61 32 80 21 53
119 243 133 260 6 8 18 27 25 41 24 49 174 241 255 326 158 168 368 324 571
424 61 30 126 60 145 67 216 82 380 122 555 138 39 3 79 8 90 9 11 2 203 4
428 4 l407 1 0 701 0 701 -502 -5 c-277 -3 -534 -10 -573 -16 -38 -5 -92 -12
-120 -15 -27 -4 -95 -15 -150 -26 -55 -11 -111 -22 -124 -25 -111 -21 -392
-108 -526 -162 -79 -32 -78 -31 -240 -109 -457 -218 -896 -571 -1209 -971 -27
-35 -52 -63 -55 -63 -4 0 -50 53 -103 118 -242 294 -519 536 -854 746 -135 85
-408 225 -509 261 -27 10 -54 22 -60 26 -40 28 -524 165 -650 184 -22 3 -67
10 -100 15 -33 5 -82 12 -110 15 -27 3 -66 8 -85 11 -19 3 -259 8 -532 11
l-498 5 0 -701z"/>
<path d="M0 3500 l0 -700 1330 0 1330 0 0 700 0 700 -1330 0 -1330 0 0 -700z"/>
<path d="M4340 3500 l0 -700 1330 0 1330 0 0 700 0 700 -1330 0 -1330 0 0
-700z"/>
<path d="M2653 2783 c-17 -51 -96 -227 -129 -288 -227 -423 -618 -774 -1059
-948 -103 -41 -272 -91 -360 -106 -33 -6 -71 -13 -85 -16 -26 -5 -108 -14
-175 -20 -22 -1 -221 -3 -442 -4 l-403 -1 0 -701 0 -700 453 2 c248 1 486 6
527 10 41 4 100 11 130 14 162 17 409 67 575 117 95 28 263 86 300 102 17 8
55 24 85 36 210 86 514 258 697 396 28 21 64 48 79 59 15 11 32 25 38 30 6 6
38 32 71 60 123 102 248 223 361 353 94 106 111 127 147 175 15 20 32 37 37
37 4 0 32 -30 60 -66 362 -460 865 -838 1415 -1063 11 -5 31 -13 45 -19 157
-67 500 -163 670 -188 19 -3 58 -9 85 -14 50 -9 86 -14 245 -29 47 -4 286 -9
533 -10 l447 -2 0 700 0 701 -392 1 c-444 1 -483 2 -633 25 -597 90 -1134 458
-1459 1001 -55 91 -140 269 -169 356 -6 16 -55 17 -847 17 -792 0 -841 -1
-847 -17z"/>
</g>
</svg>
